<?xml version="1.0" encoding="UTF-8"?>
<svg id="Camada_2" xmlns="http://www.w3.org/2000/svg" viewBox="0 0 536.49 129.51">
  <defs>
    <style>
      .cls-1 {
        fill: #dce237;
      }

      .cls-2 {
        fill: #dce23b;
        stroke: #dce237;
        stroke-miterlimit: 10;
        stroke-width: 7px;
      }
    </style>
  </defs>
  <g id="Layer_1">
    <g>
      <path class="cls-1" d="M64.63,129.26C28.94,129.26,0,100.33,0,64.63S28.94,0,64.63,0c30.32,0,55.8,20.79,62.9,48.86h-19.06c-2.43-6.41-6.06-12.13-10.92-17.15-8.84-8.66-20.45-13.52-32.92-13.52s-24.09,4.85-32.75,13.52c-8.84,8.84-13.69,20.45-13.69,32.92s4.85,24.09,13.69,32.92c8.66,8.66,20.45,13.52,32.75,13.52s24.09-4.85,32.92-13.52c4.68-4.68,8.14-10.05,10.4-15.94h19.23c-7.45,27.38-32.58,47.65-62.55,47.65Z"/>
      <path class="cls-1" d="M167.45,108.47h15.77v16.98h-49.04v-16.98h15.94V22.01h-15.94V4.16h49.04v17.85h-15.77v86.47Z"/>
      <path class="cls-1" d="M197.08,125.45V4.16h33.44c11.96,0,22.7,4.85,31.36,13,8.49,8.14,13,19.58,13,31.19s-4.51,23.05-13,31.54c-4.33,4.33-9.53,7.45-15.08,9.7l29.11,35.87h-23.57l-26.34-32.75h-10.74v32.75h-18.19ZM215.27,74.51h15.25c14.38,0,26.34-11.78,26.34-26.17s-11.96-25.99-26.34-25.99h-15.25v52.16Z"/>
      <path class="cls-1" d="M309.75,117.28c0,6.46-5.17,12.06-12.06,12.06s-12.28-5.6-12.28-12.06c0-6.89,5.6-12.49,12.28-12.49s12.06,5.6,12.06,12.49Z"/>
      <path class="cls-1" d="M378.1,129.26c-35.7,0-64.63-28.94-64.63-64.63S342.41,0,378.1,0c30.32,0,55.79,20.79,62.9,48.86h-19.06c-2.43-6.41-6.06-12.13-10.92-17.15-8.84-8.66-20.45-13.52-32.92-13.52s-24.09,4.85-32.75,13.52c-8.84,8.84-13.69,20.45-13.69,32.92s4.85,24.09,13.69,32.92c8.66,8.66,20.45,13.52,32.75,13.52s24.08-4.85,32.92-13.52c4.68-4.68,8.14-10.05,10.4-15.94h19.23c-7.45,27.38-32.58,47.65-62.55,47.65Z"/>
      <path class="cls-1" d="M492.05,21.43c-24.54,0-44.44,19.9-44.44,44.44s19.9,44.44,44.44,44.44,44.44-19.9,44.44-44.44-19.9-44.44-44.44-44.44ZM492.05,94.15c-15.61,0-28.27-12.66-28.27-28.27s12.66-28.27,28.27-28.27,28.27,12.66,28.27,28.27-12.66,28.27-28.27,28.27Z"/>
      <line class="cls-2" x1="474.89" y1="126.01" x2="509.2" y2="126.01"/>
    </g>
  </g>
</svg>