<svg width="176" height="177" viewBox="0 0 176 177" fill="none" xmlns="http://www.w3.org/2000/svg">
<path d="M89.5957 73.7374L91.0092 0H85.665L87.1315 73.6921C87.4187 73.677 87.706 73.6467 88.0008 73.6467C88.545 73.6467 89.0741 73.6845 89.5957 73.7374Z" fill="#DEFF00"/>
<path d="M113.506 4.02782L108.344 2.64453L90.7842 73.9178C91.6081 74.0765 92.4018 74.3184 93.1652 74.6132L113.506 4.02782Z" fill="#DEFF00"/>
<path d="M134.192 13.076L129.574 10.3926L93.7822 74.8703C94.5381 75.2029 95.2713 75.596 95.9516 76.0571L134.192 13.0836V13.076Z" fill="#DEFF00"/>
<path d="M98.8342 78.5892L152.026 27.2036L148.239 23.4316L97.0654 76.8733C97.7004 77.3949 98.29 77.9694 98.8267 78.5892H98.8342Z" fill="#DEFF00"/>
<path d="M165.471 46.3077L162.795 41.6816L99.7988 79.824C100.267 80.4968 100.676 81.2224 101.023 81.9708L165.463 46.3002L165.471 46.3077Z" fill="#DEFF00"/>
<path d="M174.407 67.5241L173.016 62.3613L101.501 83.1182C101.773 83.8741 101.992 84.6602 102.136 85.4766L174.407 67.5241Z" fill="#DEFF00"/>
<path d="M3.63719 62.8438L2.25391 68.0065L73.837 85.6415C73.9731 84.8176 74.1848 84.0163 74.4493 83.2453L3.63719 62.8438Z" fill="#DEFF00"/>
<path d="M13.4774 41.3633L10.7939 45.9818L75.1129 81.6827C75.4833 80.9343 75.9066 80.2313 76.3904 79.5662L13.4774 41.3633Z" fill="#DEFF00"/>
<path d="M79.0432 76.7915L27.5971 23.5312L23.8252 27.3183L77.2593 78.4847C77.8036 77.8725 78.4007 77.298 79.0432 76.7915Z" fill="#DEFF00"/>
<path d="M45.9229 10.084L41.2969 12.7598L79.7492 76.2625C80.4144 75.7938 81.1249 75.3856 81.8733 75.0379L45.9229 10.084Z" fill="#DEFF00"/>
<path d="M67.9245 1.94141L62.7617 3.33225L83.3901 74.4165C84.1611 74.1595 84.9548 73.963 85.7787 73.8345L67.9245 1.94141Z" fill="#DEFF00"/>
<path d="M102.332 88.9537L176.001 90.4731V85.1289L102.294 86.482C102.347 86.9884 102.377 87.5024 102.377 88.024C102.377 88.3339 102.347 88.6438 102.332 88.9537Z" fill="#DEFF00"/>
<path d="M73.7072 86.5135L0 84.9941V90.3383L73.6694 88.9853C73.6467 88.6678 73.624 88.3503 73.624 88.0253C73.624 87.5188 73.6543 87.0124 73.7072 86.5135Z" fill="#DEFF00"/>
<path d="M86.4077 102.301L84.9941 176.038H90.3383L88.8719 102.346C88.5846 102.361 88.2974 102.391 88.0026 102.391C87.4584 102.391 86.9292 102.354 86.4077 102.301Z" fill="#DEFF00"/>
<path d="M62.4951 172.017L67.6579 173.4L85.2173 102.127C84.3934 101.968 83.5997 101.726 82.8362 101.432L62.4951 172.025V172.017Z" fill="#DEFF00"/>
<path d="M41.8096 162.971L46.4281 165.655L82.2197 101.177C81.4638 100.844 80.7305 100.451 80.0502 99.9902L41.8096 162.964V162.971Z" fill="#DEFF00"/>
<path d="M77.1688 97.457L23.9766 148.843L27.7636 152.615L78.9376 99.1729C78.3027 98.6513 77.7131 98.0769 77.1764 97.457H77.1688Z" fill="#DEFF00"/>
<path d="M10.5293 129.733L13.2052 134.359L76.2013 96.2171C75.7327 95.5443 75.3245 94.8186 74.9768 94.0703L10.5293 129.733Z" fill="#DEFF00"/>
<path d="M1.5957 108.517L2.98655 113.68L74.5017 92.9228C74.2295 92.1669 74.0103 91.3808 73.8667 90.5645L1.5957 108.517Z" fill="#DEFF00"/>
<path d="M172.359 113.204L173.742 108.041L102.159 90.4062C102.023 91.2302 101.811 92.0314 101.547 92.8024L172.359 113.204Z" fill="#DEFF00"/>
<path d="M162.524 134.685L165.208 130.066L100.889 94.3652C100.518 95.1136 100.095 95.8166 99.6113 96.4817L162.532 134.685H162.524Z" fill="#DEFF00"/>
<path d="M96.957 99.2574L148.403 152.51L152.175 148.723L98.7409 97.5566C98.1967 98.1689 97.5995 98.7434 96.957 99.2498V99.2574Z" fill="#DEFF00"/>
<path d="M130.08 165.966L134.706 163.29L96.2539 99.7871C95.5888 100.256 94.8782 100.664 94.1299 101.012L130.08 165.966Z" fill="#DEFF00"/>
<path d="M108.07 174.106L113.233 172.715L92.6044 101.631C91.8334 101.888 91.0397 102.084 90.2158 102.213L108.078 174.106H108.07Z" fill="#DEFF00"/>
<path d="M88.0019 96.8769C92.8905 96.8769 96.8534 92.9139 96.8534 88.0253C96.8534 83.1368 92.8905 79.1738 88.0019 79.1738C83.1133 79.1738 79.1504 83.1368 79.1504 88.0253C79.1504 92.9139 83.1133 96.8769 88.0019 96.8769Z" fill="#DEFF00"/>
</svg>
